<?xml version="1.0" encoding="UTF-8"?>
<svg xmlns="http://www.w3.org/2000/svg" xmlns:xlink="http://www.w3.org/1999/xlink" width="2040" height="960" viewBox="0 0 2040 960">
<path fill-rule="nonzero" fill="rgb(25.244141%, 73.971558%, 57.487488%)" fill-opacity="1" d="M 1935.800781 231.828125 L 1903.5 263.648438 L 1865.300781 253.238281 C 1812.398438 238.871094 1756.5 238.230469 1703.398438 251.371094 L 1465.199219 310.429688 C 1430.398438 319.070312 1396.898438 332.128906 1365.601562 349.25 L 1102.269531 493.199219 L 1102.191406 474.558594 L 1378.898438 289.808594 C 1391 281.660156 1404.5 275.890625 1418.898438 272.660156 L 1814 185 C 1835 180.320312 1857 181.480469 1877.5 188.351562 L 1929.800781 205.988281 C 1935 207.738281 1938.800781 211.941406 1940 217.25 C 1941.199219 222.519531 1939.699219 227.96875 1935.800781 231.828125 Z M 1843.5 322.519531 L 1831.101562 334.769531 C 1797.800781 328.261719 1764 327 1730.601562 331 L 1486.898438 360.160156 C 1451.398438 364.410156 1416.5 373.230469 1383.199219 386.371094 L 1104.140625 496.671875 L 1367.5 352.75 C 1398.5 335.738281 1431.699219 322.808594 1466.101562 314.308594 L 1704.300781 255.25 C 1729.398438 249.039062 1755 245.941406 1780.699219 245.941406 C 1808.800781 245.941406 1836.898438 249.648438 1864.199219 257.070312 L 1900.199219 266.851562 Z M 1729.601562 434.460938 L 1505.199219 426.140625 C 1469.5 424.78125 1433.699219 428.058594 1398.699219 435.890625 L 1102.328125 502.171875 L 1102.328125 501.691406 L 1384.699219 390.089844 C 1417.601562 377.070312 1452.101562 368.328125 1487.300781 364.121094 L 1731.101562 334.910156 C 1763.101562 331.070312 1795.601562 332.179688 1827.601562 338.21875 Z M 1673.898438 489.320312 C 1665.101562 497.878906 1655.199219 504.988281 1644.398438 510.460938 L 1643.699219 510.789062 C 1643 511.160156 1642.300781 511.539062 1641.5 511.898438 C 1636.300781 514.359375 1630.800781 516.488281 1625.101562 518.230469 L 1611 522.519531 L 1513.300781 501.601562 C 1484.601562 495.46875 1455.300781 492.378906 1425.898438 492.378906 C 1419.5 492.378906 1413.101562 492.53125 1406.699219 492.828125 L 1102.328125 507.058594 L 1102.328125 506.230469 L 1399.699219 439.78125 C 1434.199219 432.011719 1469.699219 428.761719 1505.101562 430.109375 L 1725.699219 438.320312 Z M 1534.699219 545.621094 L 1102.421875 545.621094 L 1102.328125 512.601562 L 1102.328125 510.988281 L 1406.898438 496.800781 C 1442.199219 495.171875 1477.699219 498.089844 1512.398438 505.488281 L 1603.199219 524.898438 Z M 1326.070312 551.929688 L 1534.5 551.929688 L 1539.800781 554.238281 L 1287.050781 619.121094 C 1264.71875 624.871094 1240.949219 625.320312 1218.308594 620.421875 L 1102.460938 595.160156 C 1102.488281 594.679688 1102.511719 594.210938 1102.511719 593.738281 L 1221.058594 590.160156 C 1244.761719 589.460938 1268.328125 583.109375 1289.230469 571.808594 Z M 1287.328125 568.320312 C 1267.019531 579.359375 1244.050781 585.539062 1220.921875 586.191406 L 1102.511719 589.769531 L 1102.421875 551.929688 L 1317.671875 551.929688 Z M 1545.800781 556.839844 L 1582.800781 572.871094 C 1589.898438 575.941406 1593.699219 583.871094 1591.601562 591.328125 L 1577.699219 641.328125 L 1577.5 641.859375 C 1577 643.460938 1576.5 644.980469 1576 646.488281 L 1277.300781 660.511719 C 1254.28125 661.558594 1230.898438 657.179688 1209.710938 647.800781 L 1101.941406 599.78125 C 1101.980469 599.570312 1102.011719 599.359375 1102.039062 599.140625 L 1217.390625 624.261719 C 1227.890625 626.570312 1238.839844 627.738281 1249.960938 627.738281 C 1262.839844 627.738281 1275.640625 626.140625 1288.019531 622.988281 Z M 1542.398438 681.769531 L 1476.5 710.238281 L 1265.148438 688.78125 C 1242.121094 686.449219 1219.648438 678.660156 1200.179688 666.25 L 1104.03125 605.078125 L 1208.160156 651.398438 C 1227.558594 660.050781 1249.121094 664.621094 1270.5 664.621094 C 1272.851562 664.621094 1275.230469 664.570312 1277.558594 664.480469 L 1574.199219 650.550781 C 1567.898438 664.578125 1556.601562 675.640625 1542.398438 681.769531 Z M 1382.898438 750.738281 L 1248.289062 715.800781 C 1225.941406 709.980469 1204.941406 698.851562 1187.550781 683.589844 L 1101.21875 607.96875 L 1197.988281 669.601562 C 1218.019531 682.339844 1241.109375 690.339844 1264.761719 692.738281 L 1469 713.488281 Z M 1363.300781 759.21875 C 1350.300781 764.78125 1335.710938 765.808594 1322.238281 762.140625 L 1227.851562 736.578125 C 1217.648438 733.769531 1208.210938 728.351562 1200.550781 720.921875 L 1093.359375 615.921875 L 1093.441406 615.839844 C 1095.140625 614.089844 1096.621094 612.21875 1097.828125 610.269531 L 1184.929688 686.601562 C 1202.71875 702.230469 1224.289062 713.648438 1247.320312 719.628906 L 1377 753.289062 Z M 1088.96875 611.351562 L 1042.851562 657.421875 L 993.609375 706.75 L 993.609375 440.378906 L 1060.070312 427.789062 L 1088.160156 454.539062 C 1092.898438 459.140625 1095.691406 465.378906 1095.839844 471.78125 C 1095.878906 472.019531 1095.871094 472.300781 1095.871094 472.539062 L 1096.199219 590.75 L 1096.199219 593.699219 C 1096.199219 594.039062 1096.199219 594.378906 1096.148438 594.820312 C 1096.148438 595.671875 1096.101562 596.390625 1095.960938 597.160156 C 1095.960938 597.449219 1095.878906 597.808594 1095.78125 598.238281 C 1095.699219 598.941406 1095.539062 599.628906 1095.261719 600.398438 L 1095.21875 600.519531 C 1095.21875 600.53125 1095.210938 600.539062 1095.210938 600.550781 L 1095.121094 600.761719 L 1095.121094 600.851562 C 1095.011719 601.289062 1094.859375 601.730469 1094.710938 602.179688 C 1094.628906 602.441406 1094.539062 602.699219 1094.429688 603.039062 C 1094.410156 603.101562 1094.378906 603.191406 1094.300781 603.339844 C 1094.140625 603.699219 1093.980469 604.050781 1093.808594 604.398438 C 1093.621094 604.78125 1093.441406 605.148438 1093.300781 605.480469 C 1092.191406 607.570312 1090.730469 609.550781 1088.96875 611.351562 Z M 1069.621094 693.800781 C 1069.621094 700.320312 1066.960938 706.75 1062.320312 711.429688 L 1052.71875 721.03125 L 1052.71875 656.550781 L 1069.621094 639.660156 Z M 1048.75 725.011719 L 1032.589844 741.191406 L 1032.589844 676.660156 L 1048.75 660.519531 Z M 1012.46875 761.28125 L 1012.46875 696.769531 L 1028.621094 680.628906 L 1028.621094 745.148438 Z M 1042.941406 771.859375 C 1042.941406 778.351562 1040.261719 784.78125 1035.601562 789.488281 L 994.558594 830.578125 L 993.609375 831.519531 L 993.609375 789.050781 L 1042.941406 739.71875 Z M 1016.21875 841.78125 C 1016.21875 847.890625 1014.078125 853.621094 1010.128906 858.121094 L 1010.128906 823.871094 L 1016.21875 817.78125 Z M 1006.160156 862.261719 L 994.601562 873.78125 L 992.351562 876.050781 L 992.351562 841.648438 L 1006.160156 827.839844 Z M 992.351562 716.878906 L 1008.5 700.738281 L 1008.5 765.25 L 992.351562 781.398438 Z M 992.351562 347.78125 L 1008.5 353.539062 L 1008.5 431.148438 L 992.351562 434.230469 Z M 1012.46875 354.960938 L 1028.621094 360.75 L 1028.621094 427.308594 L 1012.46875 430.398438 Z M 1032.589844 362.171875 L 1048.75 367.949219 L 1048.75 423.46875 L 1032.589844 426.550781 Z M 1052.71875 369.378906 L 1068.871094 375.160156 L 1068.871094 419.679688 C 1068.839844 419.679688 1068.808594 419.691406 1068.78125 419.691406 L 1062.640625 420.871094 L 1062.640625 420.820312 L 1052.71875 422.710938 Z M 988.371094 434.199219 L 972.21875 431.121094 L 972.21875 353.601562 L 988.371094 347.839844 Z M 988.371094 781.21875 L 972.21875 765.089844 L 972.21875 700.558594 L 988.371094 716.699219 Z M 988.371094 875.929688 L 974.558594 862.078125 L 974.558594 827.730469 L 988.371094 841.511719 Z M 970.589844 857.949219 C 966.710938 853.429688 964.601562 847.761719 964.601562 841.78125 L 964.601562 817.78125 L 970.589844 823.761719 Z M 945.261719 789.488281 C 940.628906 784.851562 937.96875 778.429688 937.96875 771.859375 L 937.96875 739.71875 L 987.300781 789.050781 L 987.300781 831.519531 L 986.351562 830.578125 L 986.160156 830.441406 Z M 931.980469 724.828125 L 931.980469 660.328125 L 948.128906 676.46875 L 948.128906 741.050781 L 937.730469 730.570312 Z M 968.25 696.589844 L 968.25 761.128906 L 952.101562 745.019531 L 952.101562 680.449219 Z M 906.371094 625.789062 L 895.941406 615.398438 L 892.589844 612.011719 L 891.910156 611.371094 C 890.230469 609.699219 888.828125 607.769531 887.601562 605.46875 C 887.21875 604.78125 886.851562 604.109375 886.640625 603.429688 L 886.539062 603.21875 C 886.53125 603.191406 886.5 603.101562 886.480469 603.039062 L 886.421875 602.871094 C 886.128906 602.199219 885.898438 601.5 885.691406 600.828125 L 885.609375 600.441406 C 885.371094 599.609375 885.199219 598.890625 885.03125 598.050781 C 884.941406 597.808594 884.898438 597.5 884.890625 597.058594 C 884.789062 596.300781 884.710938 595.558594 884.699219 594.71875 C 884.660156 594.378906 884.660156 594.039062 884.660156 593.699219 L 884.761719 551.121094 L 884.941406 472.539062 C 884.941406 472.300781 884.941406 472.019531 884.988281 471.679688 C 885.210938 465.308594 888.039062 459.070312 892.738281 454.550781 L 920.75 427.789062 L 987.300781 440.378906 L 987.300781 706.769531 L 971.378906 690.890625 L 938.011719 657.421875 Z M 928 720.871094 L 918.539062 711.429688 C 913.941406 706.730469 911.289062 700.308594 911.289062 693.800781 L 911.289062 639.660156 L 928 656.359375 Z M 780.320312 720.921875 C 772.648438 728.359375 763.191406 733.769531 752.96875 736.578125 L 658.671875 762.140625 C 645.109375 765.808594 630.511719 764.78125 617.558594 759.230469 L 603.910156 753.289062 L 733.550781 719.628906 C 756.519531 713.648438 778.101562 702.230469 795.929688 686.601562 L 883.078125 610.269531 C 884.339844 612.308594 885.820312 614.191406 887.460938 615.828125 L 887.53125 615.898438 Z M 511.820312 713.488281 L 716.148438 692.738281 C 739.730469 690.351562 762.78125 682.339844 782.820312 669.601562 L 879.820312 607.859375 L 793.359375 683.589844 C 775.890625 698.878906 754.851562 710.011719 732.53125 715.800781 L 597.96875 750.738281 Z M 438.550781 681.769531 C 424.28125 675.640625 412.988281 664.589844 406.648438 650.550781 L 703.359375 664.480469 C 705.679688 664.570312 708.058594 664.621094 710.410156 664.621094 C 731.738281 664.621094 753.300781 660.050781 772.75 651.398438 L 876.730469 605.148438 L 780.679688 666.25 C 761.269531 678.648438 738.800781 686.441406 715.710938 688.78125 L 504.390625 710.238281 Z M 403.261719 641.351562 L 389.269531 591.328125 C 387.21875 583.859375 391 575.921875 398.070312 572.871094 L 435.019531 556.839844 L 692.800781 622.988281 C 705.269531 626.140625 718.070312 627.738281 730.859375 627.738281 C 741.96875 627.738281 752.929688 626.570312 763.421875 624.261719 L 878.800781 599.128906 C 878.851562 599.351562 878.898438 599.570312 878.949219 599.789062 L 771.101562 647.800781 C 749.960938 657.179688 726.589844 661.558594 703.519531 660.511719 L 404.921875 646.488281 C 404.320312 644.859375 403.78125 643.171875 403.261719 641.351562 Z M 878.398438 595.160156 L 762.601562 620.421875 C 739.96875 625.320312 716.179688 624.871094 693.808594 619.121094 L 441.019531 554.238281 L 446.351562 551.929688 L 654.789062 551.929688 L 691.628906 571.808594 C 712.53125 583.109375 736.109375 589.460938 759.800781 590.160156 L 878.351562 593.738281 C 878.351562 594.210938 878.371094 594.679688 878.398438 595.160156 Z M 878.351562 589.769531 L 759.949219 586.191406 C 736.859375 585.539062 713.898438 579.359375 693.53125 568.320312 L 663.230469 551.929688 L 878.441406 551.929688 Z M 377.75 524.898438 L 468.441406 505.488281 C 503.171875 498.089844 538.671875 495.171875 573.949219 496.800781 L 878.539062 510.988281 L 878.488281 545.621094 L 446.210938 545.621094 Z M 355.71875 518.230469 C 349.890625 516.410156 344.390625 514.289062 339.378906 511.910156 L 338.441406 511.441406 C 337.789062 511.109375 337.121094 510.769531 336.480469 510.460938 C 325.488281 504.878906 315.589844 497.761719 307.058594 489.320312 L 255.199219 438.320312 L 475.789062 430.109375 C 511.101562 428.75 546.589844 432.011719 581.25 439.78125 L 878.539062 506.230469 L 878.539062 507.058594 L 574.121094 492.828125 C 538.390625 491.179688 502.539062 494.128906 467.578125 501.601562 L 369.890625 522.519531 Z M 228.148438 411.71875 L 226 409.710938 L 153.308594 338.21875 C 185.28125 332.179688 217.738281 331.070312 249.808594 334.910156 L 493.578125 364.121094 C 528.730469 368.328125 563.238281 377.058594 596.148438 390.089844 L 878.539062 501.691406 L 878.539062 502.171875 L 582.078125 435.890625 C 552.300781 429.210938 521.859375 425.839844 491.351562 425.839844 C 486.109375 425.839844 480.871094 425.941406 475.628906 426.140625 L 251.300781 434.460938 Z M 139.238281 324.351562 L 80.679688 266.851562 L 116.699219 257.070312 C 168.851562 242.871094 224.140625 242.238281 276.570312 255.25 L 514.78125 314.308594 C 549.25 322.839844 582.421875 335.769531 613.378906 352.75 L 876.71875 496.671875 L 597.640625 386.371094 C 564.398438 373.238281 529.53125 364.421875 494.011719 360.160156 L 250.28125 331 C 237.578125 329.480469 224.828125 328.71875 212.058594 328.71875 C 191.25 328.71875 170.421875 330.730469 149.789062 334.769531 Z M 45.121094 231.828125 C 41.230469 228.019531 39.648438 222.570312 40.898438 217.230469 C 42.050781 211.941406 45.851562 207.738281 51.078125 205.988281 L 103.449219 188.351562 C 123.871094 181.46875 145.789062 180.308594 166.851562 185 L 561.921875 272.660156 C 576.371094 275.898438 589.871094 281.671875 602.039062 289.808594 L 878.628906 474.558594 L 878.589844 493.199219 L 615.28125 349.25 C 583.980469 332.128906 550.480469 319.070312 515.691406 310.429688 L 277.53125 251.371094 C 252.191406 245.109375 226.199219 241.980469 200.21875 241.980469 C 171.738281 241.980469 143.261719 245.738281 115.660156 253.238281 L 77.460938 263.648438 Z M 912.078125 419.691406 L 912.070312 419.691406 C 912 419.679688 911.921875 419.660156 911.851562 419.640625 L 911.851562 375.210938 L 928 369.429688 L 928 422.679688 L 919.238281 421 L 918.769531 420.96875 Z M 931.980469 368.011719 L 948.128906 362.230469 L 948.128906 426.519531 L 931.980469 423.441406 Z M 952.101562 360.808594 L 968.25 355.03125 L 968.25 430.359375 L 952.101562 427.28125 Z M 907.878906 418.121094 C 903.769531 415.78125 901.179688 411.449219 901.179688 406.738281 L 901.179688 388.300781 C 901.179688 383.550781 903.808594 379.160156 907.878906 376.839844 Z M 1072.839844 376.808594 C 1076.980469 379.128906 1079.679688 383.601562 1079.679688 388.300781 L 1079.679688 406.738281 C 1079.679688 411.5 1077.03125 415.871094 1072.839844 418.191406 Z M 1946.101562 215.839844 C 1944.398438 208.339844 1939 202.410156 1931.800781 200 L 1879.5 182.398438 C 1858 175.148438 1834.898438 173.921875 1812.601562 178.820312 L 1417.601562 266.519531 C 1402.398438 269.890625 1388.199219 275.960938 1375.300781 284.570312 L 1101.761719 467.261719 C 1100.660156 460.71875 1097.390625 454.640625 1092.480469 450 L 1067.738281 426.328125 L 1070.019531 425.890625 C 1079.269531 424.21875 1085.988281 416.171875 1085.988281 406.738281 L 1085.988281 388.300781 C 1085.988281 380.300781 1080.949219 372.96875 1073.421875 370.070312 L 990.730469 340.5 L 990.449219 340.398438 L 907.421875 370.078125 C 899.910156 372.960938 894.871094 380.28125 894.871094 388.300781 L 894.871094 406.738281 C 894.871094 416.160156 901.589844 424.210938 910.828125 425.878906 L 913.160156 426.328125 L 888.339844 450 C 883.429688 454.671875 880.199219 460.761719 879.148438 467.25 L 605.570312 284.570312 C 592.640625 275.929688 578.410156 269.859375 563.261719 266.519531 L 168.230469 178.820312 C 146.03125 173.921875 122.929688 175.160156 101.429688 182.398438 L 49.058594 200 C 41.808594 202.441406 36.429688 208.359375 34.671875 215.851562 C 33 223.371094 35.261719 231.019531 40.699219 236.320312 L 131.351562 325.460938 L 143.519531 337.398438 L 219.191406 411.808594 L 302.640625 493.800781 C 310.839844 501.871094 319.988281 508.679688 329.820312 514.058594 L 332.550781 515.570312 C 339.359375 519.089844 346.539062 522.019531 353.890625 524.28125 L 436.738281 549.371094 L 395.550781 567.070312 C 385.550781 571.410156 380.25 582.570312 383.199219 593.03125 L 397.191406 643.050781 C 397.609375 644.648438 398.050781 646.050781 398.519531 647.320312 L 398.679688 647.78125 C 398.898438 648.441406 399.128906 649.121094 399.460938 649.730469 C 406.058594 666.839844 419.058594 680.28125 436.078125 687.578125 L 590.179688 754.269531 L 615.078125 764.980469 C 623.570312 768.671875 633.019531 770.621094 642.410156 770.621094 C 648.589844 770.621094 654.628906 769.820312 660.359375 768.25 L 754.609375 742.648438 C 765.96875 739.558594 776.390625 733.621094 784.738281 725.460938 L 892.03125 620.398438 L 904.980469 633.351562 L 904.980469 693.800781 C 904.980469 702.121094 908.199219 709.949219 914.058594 715.859375 L 931.648438 733.410156 L 931.648438 771.859375 C 931.648438 780.28125 934.878906 788.109375 940.738281 793.921875 L 958.28125 811.46875 L 958.28125 841.78125 C 958.28125 850.101562 961.519531 857.949219 967.410156 863.890625 L 989.390625 885.859375 L 990.480469 886.851562 L 1013.398438 863.890625 C 1019.289062 858 1022.53125 850.148438 1022.53125 841.78125 L 1022.53125 811.46875 L 1040.121094 793.921875 C 1046.011719 788.078125 1049.261719 780.25 1049.261719 771.859375 L 1049.261719 733.410156 L 1066.75 715.859375 C 1072.671875 709.988281 1075.929688 702.160156 1075.929688 693.800781 L 1075.929688 633.351562 L 1088.828125 620.398438 L 1196.128906 725.460938 C 1204.558594 733.660156 1214.96875 739.601562 1226.25 742.648438 L 1320.5 768.25 C 1326.230469 769.820312 1332.289062 770.621094 1338.5 770.621094 C 1347.898438 770.621094 1357.101562 768.730469 1365.800781 764.980469 L 1544.800781 687.578125 C 1561.800781 680.28125 1574.800781 666.839844 1581.398438 649.75 C 1581.800781 648.929688 1582.101562 648.101562 1582.300781 647.351562 C 1582.898438 645.929688 1583.300781 644.5 1583.699219 643.058594 L 1597.699219 593.019531 C 1600.601562 582.511719 1595.199219 571.359375 1585.300781 567.070312 L 1544.101562 549.371094 L 1616.199219 527.558594 L 1626.898438 524.28125 C 1634.199219 522.070312 1641.398438 519.140625 1648.300781 515.550781 C 1648.800781 515.300781 1649.199219 515.050781 1649.699219 514.808594 C 1650.101562 514.558594 1650.601562 514.308594 1651 514.058594 C 1661 508.578125 1670.199219 501.769531 1678.300781 493.800781 L 1907.398438 268.46875 L 1940.199219 236.320312 C 1945.699219 230.921875 1947.898438 223.269531 1946.101562 215.839844 "/>
</svg>
