<?xml version="1.0" encoding="UTF-8"?>
<svg xmlns="http://www.w3.org/2000/svg" xmlns:xlink="http://www.w3.org/1999/xlink" width="1560" height="984" viewBox="0 0 1560 984">
<path fill-rule="nonzero" fill="rgb(25.244141%, 73.971558%, 57.487488%)" fill-opacity="1" d="M 1521.101562 97.640625 L 1495.898438 122.410156 L 1466.199219 114.308594 C 1425.101562 103.121094 1381.5 102.621094 1340.199219 112.851562 L 1154.828125 158.808594 C 1127.75 165.539062 1101.671875 175.699219 1077.308594 189.03125 L 872.378906 301.070312 L 872.308594 286.558594 L 1087.660156 142.769531 C 1097.109375 136.421875 1107.601562 131.929688 1118.839844 129.421875 L 1426.300781 61.199219 C 1442.699219 57.550781 1459.800781 58.449219 1475.699219 63.800781 L 1516.398438 77.53125 C 1520.5 78.890625 1523.398438 82.160156 1524.398438 86.300781 C 1525.398438 90.398438 1524.101562 94.640625 1521.101562 97.640625 Z M 1449.300781 168.230469 L 1439.601562 177.761719 C 1413.699219 172.691406 1387.398438 171.710938 1361.398438 174.828125 L 1171.738281 197.519531 C 1144.128906 200.828125 1116.980469 207.691406 1091.039062 217.921875 L 873.828125 303.769531 L 1078.800781 191.75 C 1102.96875 178.519531 1128.800781 168.449219 1155.570312 161.828125 L 1341 115.871094 C 1360.398438 111.03125 1380.398438 108.621094 1400.398438 108.621094 C 1422.300781 108.621094 1444.199219 111.511719 1465.398438 117.28125 L 1493.398438 124.898438 Z M 1360.601562 255.351562 L 1186 248.871094 C 1158.199219 247.808594 1130.308594 250.371094 1103.121094 256.460938 L 872.421875 308.050781 L 872.421875 307.671875 L 1092.199219 220.808594 C 1117.808594 210.679688 1144.679688 203.878906 1172.070312 200.601562 L 1361.800781 177.871094 C 1386.699219 174.878906 1412 175.738281 1436.898438 180.441406 Z M 1317.199219 298.039062 C 1310.398438 304.710938 1302.699219 310.25 1294.308594 314.5 L 1293.808594 314.761719 C 1293.238281 315.039062 1292.648438 315.339844 1292.03125 315.621094 C 1288 317.539062 1283.730469 319.191406 1279.328125 320.550781 L 1268.339844 323.890625 L 1192.269531 307.601562 C 1169.929688 302.828125 1147.121094 300.429688 1124.269531 300.429688 C 1119.28125 300.429688 1114.300781 300.550781 1109.308594 300.78125 L 872.421875 311.851562 L 872.421875 311.210938 L 1103.839844 259.488281 C 1130.761719 253.441406 1158.359375 250.910156 1185.878906 251.960938 L 1357.601562 258.359375 Z M 1208.910156 341.859375 L 872.488281 341.859375 L 872.421875 316.160156 L 872.421875 314.910156 L 1109.480469 303.871094 C 1136.96875 302.601562 1164.601562 304.871094 1191.601562 310.628906 L 1262.21875 325.738281 Z M 1046.558594 346.78125 L 1208.761719 346.78125 L 1212.941406 348.570312 L 1016.191406 399.070312 C 998.820312 403.550781 980.308594 403.898438 962.691406 400.078125 L 872.53125 380.421875 C 872.550781 380.050781 872.558594 379.679688 872.570312 379.320312 L 964.828125 376.539062 C 983.269531 375.988281 1001.621094 371.050781 1017.890625 362.25 Z M 1016.410156 359.53125 C 1000.601562 368.128906 982.730469 372.941406 964.71875 373.441406 L 872.558594 376.230469 L 872.488281 346.78125 L 1040.03125 346.78125 Z M 1217.578125 350.601562 L 1246.410156 363.078125 C 1251.898438 365.460938 1254.851562 371.640625 1253.261719 377.441406 L 1242.378906 416.359375 L 1242.25 416.769531 C 1241.859375 418.019531 1241.5 419.199219 1241.050781 420.378906 L 1008.601562 431.289062 C 990.691406 432.109375 972.488281 428.699219 956 421.398438 L 872.121094 384.019531 C 872.148438 383.859375 872.179688 383.691406 872.199219 383.519531 L 961.980469 403.070312 C 970.148438 404.871094 978.671875 405.78125 987.320312 405.78125 C 997.351562 405.78125 1007.308594 404.539062 1016.949219 402.089844 Z M 1214.898438 447.839844 L 1163.660156 469.988281 L 999.148438 453.289062 C 981.21875 451.46875 963.730469 445.410156 948.578125 435.761719 L 873.75 388.148438 L 954.789062 424.199219 C 969.890625 430.929688 986.671875 434.488281 1003.308594 434.488281 C 1005.140625 434.488281 1006.988281 434.449219 1008.808594 434.378906 L 1239.691406 423.53125 C 1234.761719 434.449219 1225.988281 443.058594 1214.898438 447.839844 Z M 1090.820312 501.511719 L 986.03125 474.320312 C 968.628906 469.789062 952.289062 461.121094 938.75 449.25 L 871.558594 390.398438 L 946.878906 438.359375 C 962.460938 448.269531 980.429688 454.5 998.839844 456.371094 L 1157.808594 472.519531 Z M 1075.550781 508.121094 C 1065.421875 512.441406 1054.070312 513.25 1043.578125 510.378906 L 970.121094 490.5 C 962.179688 488.300781 954.828125 484.089844 948.871094 478.308594 L 865.441406 396.578125 L 865.5 396.519531 C 866.828125 395.160156 867.980469 393.699219 868.921875 392.179688 L 936.710938 451.589844 C 950.558594 463.761719 967.351562 472.648438 985.269531 477.300781 L 1086.199219 503.5 Z M 862.03125 393.03125 L 826.128906 428.878906 L 787.808594 467.28125 L 787.808594 259.960938 L 839.53125 250.160156 L 861.398438 270.980469 C 865.078125 274.558594 867.261719 279.421875 867.371094 284.398438 C 867.398438 284.578125 867.398438 284.800781 867.398438 284.980469 L 867.648438 376.988281 L 867.648438 379.289062 C 867.648438 379.550781 867.648438 379.820312 867.621094 380.160156 C 867.621094 380.820312 867.570312 381.378906 867.46875 381.980469 C 867.46875 382.199219 867.410156 382.488281 867.328125 382.820312 C 867.261719 383.371094 867.140625 383.898438 866.921875 384.5 L 866.890625 384.601562 C 866.890625 384.601562 866.878906 384.609375 866.878906 384.621094 L 866.808594 384.789062 L 866.808594 384.851562 C 866.71875 385.199219 866.609375 385.539062 866.5 385.878906 C 866.429688 386.089844 866.359375 386.289062 866.28125 386.558594 C 866.261719 386.601562 866.238281 386.671875 866.179688 386.789062 C 866.050781 387.070312 865.921875 387.339844 865.789062 387.609375 C 865.648438 387.910156 865.511719 388.199219 865.398438 388.460938 C 864.53125 390.078125 863.390625 391.628906 862.03125 393.03125 Z M 846.960938 457.199219 C 846.960938 462.269531 844.890625 467.269531 841.28125 470.921875 L 833.808594 478.390625 L 833.808594 428.199219 L 846.960938 415.058594 Z M 830.71875 481.488281 L 818.148438 494.078125 L 818.148438 443.859375 L 830.71875 431.289062 Z M 802.488281 509.71875 L 802.488281 459.511719 L 815.058594 446.949219 L 815.058594 497.160156 Z M 826.199219 517.949219 C 826.199219 523.011719 824.121094 528.011719 820.488281 531.671875 L 788.539062 563.648438 L 787.808594 564.378906 L 787.808594 531.328125 L 826.199219 492.941406 Z M 805.398438 572.371094 C 805.398438 577.121094 803.730469 581.578125 800.671875 585.089844 L 800.671875 558.429688 L 805.398438 553.691406 Z M 797.570312 588.308594 L 788.578125 597.28125 L 786.820312 599.050781 L 786.820312 572.269531 L 797.570312 561.519531 Z M 786.820312 475.160156 L 799.390625 462.601562 L 799.390625 512.808594 L 786.820312 525.378906 Z M 786.820312 187.878906 L 799.390625 192.371094 L 799.390625 252.78125 L 786.820312 255.171875 Z M 802.488281 193.46875 L 815.058594 197.980469 L 815.058594 249.789062 L 802.488281 252.191406 Z M 818.148438 199.078125 L 830.71875 203.589844 L 830.71875 246.800781 L 818.148438 249.199219 Z M 833.808594 204.699219 L 846.378906 209.199219 L 846.378906 243.839844 C 846.359375 243.851562 846.339844 243.851562 846.308594 243.859375 L 841.53125 244.769531 L 841.53125 244.730469 L 833.808594 246.210938 Z M 783.730469 255.148438 L 771.160156 252.75 L 771.160156 192.421875 L 783.730469 187.929688 Z M 783.730469 525.230469 L 771.160156 512.679688 L 771.160156 462.449219 L 783.730469 475.019531 Z M 783.730469 598.949219 L 772.980469 588.171875 L 772.980469 561.429688 L 783.730469 572.160156 Z M 769.890625 584.960938 C 766.871094 581.429688 765.21875 577.019531 765.21875 572.371094 L 765.21875 553.691406 L 769.890625 558.351562 Z M 750.179688 531.671875 C 746.570312 528.058594 744.5 523.070312 744.5 517.949219 L 744.5 492.941406 L 782.890625 531.328125 L 782.890625 564.390625 L 782.160156 563.648438 L 782.011719 563.539062 Z M 739.839844 481.351562 L 739.839844 431.148438 L 752.410156 443.710938 L 752.410156 493.96875 L 744.308594 485.820312 Z M 768.070312 459.359375 L 768.070312 509.601562 L 755.5 497.058594 L 755.5 446.800781 Z M 719.910156 404.261719 L 711.789062 396.179688 L 709.179688 393.539062 L 708.648438 393.039062 C 707.351562 391.738281 706.25 390.238281 705.300781 388.449219 C 705 387.910156 704.71875 387.390625 704.550781 386.859375 L 704.46875 386.699219 C 704.460938 386.671875 704.441406 386.601562 704.429688 386.558594 L 704.378906 386.429688 C 704.148438 385.898438 703.980469 385.359375 703.808594 384.839844 L 703.75 384.53125 C 703.558594 383.890625 703.429688 383.328125 703.300781 382.671875 C 703.230469 382.488281 703.191406 382.25 703.191406 381.898438 C 703.109375 381.308594 703.050781 380.738281 703.039062 380.078125 C 703.011719 379.820312 703.011719 379.550781 703.011719 379.289062 L 703.078125 346.148438 L 703.230469 284.980469 C 703.230469 284.800781 703.230469 284.578125 703.269531 284.320312 C 703.441406 279.359375 705.640625 274.5 709.300781 270.980469 L 731.101562 250.160156 L 782.890625 259.960938 L 782.890625 467.289062 L 770.5 454.929688 L 744.53125 428.878906 Z M 736.738281 478.261719 L 729.378906 470.921875 C 725.789062 467.261719 723.738281 462.261719 723.738281 457.199219 L 723.738281 415.058594 L 736.738281 428.058594 Z M 621.800781 478.308594 C 615.828125 484.089844 608.46875 488.308594 600.511719 490.5 L 527.121094 510.378906 C 516.570312 513.238281 505.199219 512.441406 495.121094 508.121094 L 484.5 503.5 L 585.398438 477.300781 C 603.28125 472.648438 620.070312 463.761719 633.949219 451.589844 L 701.78125 392.179688 C 702.761719 393.769531 703.910156 395.230469 705.191406 396.511719 L 705.238281 396.570312 Z M 412.820312 472.519531 L 571.859375 456.371094 C 590.210938 454.511719 608.148438 448.28125 623.75 438.359375 L 699.238281 390.308594 L 631.949219 449.25 C 618.351562 461.148438 601.980469 469.820312 584.601562 474.320312 L 479.878906 501.511719 Z M 355.800781 447.839844 L 355.800781 447.828125 C 344.691406 443.070312 335.910156 434.460938 330.96875 423.53125 L 561.898438 434.378906 C 563.710938 434.449219 565.558594 434.488281 567.390625 434.488281 C 583.988281 434.488281 600.769531 430.929688 615.910156 424.199219 L 696.839844 388.199219 L 622.078125 435.761719 C 606.96875 445.410156 589.488281 451.46875 571.511719 453.289062 L 407.039062 469.988281 Z M 328.328125 416.378906 L 317.441406 377.441406 C 315.851562 371.628906 318.789062 365.449219 324.289062 363.078125 L 353.050781 350.601562 L 553.679688 402.089844 C 563.390625 404.539062 573.351562 405.78125 583.300781 405.78125 C 591.949219 405.78125 600.480469 404.871094 608.648438 403.070312 L 698.449219 383.511719 C 698.480469 383.691406 698.519531 383.859375 698.570312 384.019531 L 614.628906 421.398438 C 598.171875 428.691406 579.988281 432.109375 562.03125 431.289062 L 329.621094 420.378906 C 329.160156 419.101562 328.730469 417.789062 328.328125 416.378906 Z M 698.140625 380.421875 L 608.011719 400.078125 C 590.390625 403.898438 571.878906 403.550781 554.46875 399.070312 L 357.71875 348.570312 L 361.871094 346.78125 L 524.101562 346.78125 L 552.769531 362.25 C 569.039062 371.050781 587.390625 375.988281 605.828125 376.539062 L 698.101562 379.320312 C 698.101562 379.679688 698.121094 380.050781 698.140625 380.421875 Z M 698.101562 376.230469 L 605.941406 373.441406 C 587.980469 372.941406 570.101562 368.128906 554.25 359.53125 L 530.671875 346.78125 L 698.171875 346.78125 Z M 308.480469 325.738281 L 379.058594 310.628906 C 406.089844 304.871094 433.71875 302.601562 461.179688 303.871094 L 698.238281 314.910156 L 698.210938 341.859375 L 361.761719 341.859375 Z M 291.328125 320.550781 C 286.789062 319.140625 282.511719 317.480469 278.609375 315.628906 L 277.878906 315.261719 C 277.371094 315.011719 276.859375 314.738281 276.351562 314.5 C 267.800781 310.148438 260.101562 304.621094 253.460938 298.050781 L 213.089844 258.359375 L 384.78125 251.960938 C 412.261719 250.910156 439.878906 253.449219 466.871094 259.488281 L 698.238281 311.210938 L 698.238281 311.851562 L 461.308594 300.78125 C 433.5 299.488281 405.609375 301.789062 378.398438 307.601562 L 302.359375 323.890625 Z M 192.039062 237.648438 L 190.371094 236.089844 L 133.789062 180.441406 C 158.671875 175.738281 183.941406 174.878906 208.898438 177.871094 L 398.628906 200.601562 C 425.988281 203.878906 452.851562 210.679688 478.460938 220.808594 L 698.238281 307.671875 L 698.238281 308.050781 L 467.511719 256.460938 C 444.328125 251.261719 420.640625 248.640625 396.890625 248.640625 C 392.820312 248.640625 388.738281 248.71875 384.660156 248.871094 L 210.058594 255.351562 Z M 122.839844 169.648438 L 77.261719 124.898438 L 105.289062 117.28125 C 145.890625 106.238281 188.921875 105.738281 229.730469 115.871094 L 415.128906 161.828125 C 441.949219 168.480469 467.769531 178.539062 491.871094 191.75 L 696.828125 303.769531 L 479.621094 217.921875 C 453.75 207.699219 426.609375 200.839844 398.96875 197.519531 L 209.269531 174.828125 C 199.378906 173.640625 189.460938 173.050781 179.519531 173.050781 C 163.328125 173.050781 147.109375 174.621094 131.050781 177.761719 Z M 49.589844 97.640625 C 46.558594 94.679688 45.328125 90.429688 46.308594 86.28125 C 47.199219 82.160156 50.160156 78.890625 54.230469 77.53125 L 94.988281 63.800781 C 110.878906 58.441406 127.941406 57.539062 144.328125 61.199219 L 451.820312 129.421875 C 463.058594 131.941406 473.570312 136.429688 483.039062 142.769531 L 698.320312 286.558594 L 698.28125 301.070312 L 493.351562 189.03125 C 468.988281 175.699219 442.910156 165.539062 415.828125 158.808594 L 230.46875 112.851562 C 210.75 107.96875 190.519531 105.539062 170.300781 105.539062 C 148.128906 105.539062 125.96875 108.460938 104.488281 114.308594 L 74.75 122.410156 Z M 724.351562 243.859375 L 724.339844 243.851562 C 724.289062 243.851562 724.230469 243.828125 724.171875 243.820312 L 724.171875 209.238281 L 736.738281 204.738281 L 736.738281 246.179688 L 729.921875 244.878906 L 729.558594 244.851562 Z M 739.839844 203.628906 L 752.410156 199.128906 L 752.410156 249.171875 L 739.839844 246.769531 Z M 755.5 198.03125 L 768.070312 193.53125 L 768.070312 252.160156 L 755.5 249.761719 Z M 721.078125 242.628906 C 717.878906 240.808594 715.871094 237.441406 715.871094 233.769531 L 715.871094 219.421875 C 715.871094 215.730469 717.910156 212.308594 721.078125 210.511719 Z M 849.46875 210.480469 C 852.691406 212.289062 854.789062 215.761719 854.789062 219.421875 L 854.789062 233.769531 C 854.789062 237.480469 852.730469 240.878906 849.46875 242.691406 Z M 1529.199219 85.199219 C 1527.800781 79.359375 1523.601562 74.75 1518 72.871094 L 1477.300781 59.171875 C 1460.5 53.53125 1442.601562 52.570312 1425.300781 56.390625 L 1117.800781 124.640625 C 1105.980469 127.261719 1094.910156 131.980469 1084.910156 138.691406 L 871.980469 280.871094 C 871.121094 275.789062 868.578125 271.050781 864.761719 267.441406 L 845.5 249.019531 L 847.269531 248.679688 C 854.480469 247.378906 859.710938 241.109375 859.710938 233.769531 L 859.710938 219.421875 C 859.710938 213.191406 855.78125 207.5 849.929688 205.238281 L 785.558594 182.21875 L 785.351562 182.140625 L 720.71875 205.238281 C 714.878906 207.480469 710.960938 213.179688 710.960938 219.421875 L 710.960938 233.769531 C 710.960938 241.109375 716.179688 247.371094 723.378906 248.679688 L 725.191406 249.019531 L 705.871094 267.441406 C 702.050781 271.078125 699.539062 275.820312 698.71875 280.871094 L 485.789062 138.691406 C 475.730469 131.96875 464.648438 127.238281 452.859375 124.640625 L 145.410156 56.390625 C 128.128906 52.570312 110.148438 53.53125 93.421875 59.171875 L 52.660156 72.871094 C 47.011719 74.761719 42.820312 79.371094 41.460938 85.210938 C 40.160156 91.050781 41.910156 97.011719 46.148438 101.128906 L 116.699219 170.519531 L 126.171875 179.808594 L 185.070312 237.71875 L 250.019531 301.539062 C 256.398438 307.808594 263.519531 313.121094 271.171875 317.300781 L 273.300781 318.480469 C 278.589844 321.21875 284.179688 323.5 289.910156 325.261719 L 354.390625 344.789062 L 322.328125 358.558594 C 314.550781 361.941406 310.421875 370.628906 312.71875 378.769531 L 323.609375 417.699219 C 323.941406 418.941406 324.28125 420.03125 324.640625 421.019531 L 324.761719 421.378906 C 324.941406 421.890625 325.121094 422.421875 325.378906 422.898438 C 330.511719 436.210938 340.628906 446.671875 353.871094 452.351562 L 473.820312 504.261719 L 493.191406 512.601562 C 499.800781 515.46875 507.160156 516.988281 514.460938 516.988281 C 519.269531 516.988281 523.980469 516.371094 528.429688 515.140625 L 601.789062 495.21875 C 610.628906 492.808594 618.738281 488.191406 625.238281 481.839844 L 708.75 400.070312 L 718.820312 410.148438 L 718.820312 457.199219 C 718.820312 463.671875 721.328125 469.769531 725.890625 474.371094 L 739.578125 488.019531 L 739.578125 517.949219 C 739.578125 524.5 742.101562 530.601562 746.660156 535.121094 L 760.308594 548.78125 L 760.308594 572.371094 C 760.308594 578.851562 762.828125 584.960938 767.421875 589.578125 L 784.519531 606.679688 L 785.371094 607.449219 L 803.210938 589.578125 C 807.789062 584.988281 810.320312 578.878906 810.320312 572.371094 L 810.320312 548.78125 L 824.011719 535.121094 C 828.589844 530.578125 831.121094 524.480469 831.121094 517.949219 L 831.121094 488.019531 L 844.730469 474.371094 C 849.339844 469.800781 851.878906 463.699219 851.878906 457.199219 L 851.878906 410.148438 L 861.921875 400.070312 L 945.429688 481.839844 C 951.988281 488.21875 960.101562 492.839844 968.871094 495.21875 L 1042.230469 515.140625 C 1046.691406 516.371094 1051.398438 516.988281 1056.238281 516.988281 C 1063.570312 516.988281 1070.730469 515.511719 1077.511719 512.601562 L 1216.828125 452.351562 C 1230.03125 446.671875 1240.148438 436.210938 1245.320312 422.910156 C 1245.578125 422.269531 1245.808594 421.628906 1245.980469 421.050781 C 1246.421875 419.941406 1246.75 418.828125 1247.089844 417.699219 L 1257.980469 378.761719 C 1260.21875 370.578125 1256.050781 361.898438 1248.300781 358.558594 L 1216.238281 344.789062 L 1272.339844 327.808594 L 1280.71875 325.261719 C 1286.359375 323.53125 1291.960938 321.25 1297.390625 318.460938 C 1297.730469 318.261719 1298.078125 318.078125 1298.429688 317.890625 C 1298.789062 317.691406 1299.148438 317.5 1299.488281 317.300781 C 1307.199219 313.039062 1314.398438 307.730469 1320.699219 301.539062 L 1499.101562 126.160156 L 1524.5 101.128906 C 1528.800781 96.941406 1530.5 90.980469 1529.199219 85.199219 "/>
<path fill-rule="nonzero" fill="rgb(16.690063%, 20.591736%, 33.296204%)" fill-opacity="1" d="M 335.328125 948.328125 C 335.328125 950.960938 335.769531 953.5 336.660156 955.949219 C 337.539062 958.390625 338.800781 960.550781 340.421875 962.429688 C 342.039062 964.308594 343.96875 965.808594 346.21875 966.941406 C 348.46875 968.058594 350.929688 968.621094 353.609375 968.621094 C 356.378906 968.621094 358.878906 968.039062 361.101562 966.871094 C 363.328125 965.710938 365.230469 964.160156 366.808594 962.238281 C 368.390625 960.308594 369.609375 958.140625 370.46875 955.71875 C 371.339844 953.300781 371.769531 950.828125 371.769531 948.328125 C 371.769531 945.691406 371.320312 943.148438 370.410156 940.710938 C 369.5 938.269531 368.238281 936.101562 366.609375 934.21875 C 364.988281 932.339844 363.078125 930.839844 360.878906 929.71875 C 358.671875 928.589844 356.25 928.03125 353.609375 928.03125 C 350.851562 928.03125 348.339844 928.609375 346.089844 929.78125 C 343.839844 930.949219 341.921875 932.488281 340.320312 934.421875 C 338.71875 936.339844 337.488281 938.511719 336.621094 940.929688 C 335.761719 943.359375 335.328125 945.820312 335.328125 948.328125 Z M 353.550781 971.671875 C 350.351562 971.671875 347.429688 971 344.789062 969.660156 C 342.160156 968.320312 339.890625 966.570312 337.988281 964.410156 C 336.078125 962.25 334.609375 959.761719 333.578125 956.949219 C 332.539062 954.140625 332.019531 951.269531 332.019531 948.328125 C 332.019531 945.261719 332.570312 942.320312 333.671875 939.511719 C 334.78125 936.699219 336.289062 934.210938 338.210938 932.050781 C 340.140625 929.890625 342.421875 928.171875 345.050781 926.890625 C 347.691406 925.621094 350.539062 924.980469 353.609375 924.980469 C 356.808594 924.980469 359.738281 925.660156 362.398438 927.019531 C 365.058594 928.390625 367.328125 930.171875 369.210938 932.371094 C 371.089844 934.578125 372.550781 937.078125 373.589844 939.859375 C 374.621094 942.648438 375.140625 945.46875 375.140625 948.328125 C 375.140625 951.441406 374.589844 954.398438 373.488281 957.210938 C 372.390625 960.019531 370.871094 962.488281 368.949219 964.640625 C 367.019531 966.78125 364.738281 968.480469 362.109375 969.761719 C 359.46875 971.03125 356.621094 971.671875 353.550781 971.671875 "/>
<path fill-rule="nonzero" fill="rgb(16.690063%, 20.591736%, 33.296204%)" fill-opacity="1" d="M 388.550781 950.921875 L 404.699219 950.921875 C 406.171875 950.921875 407.511719 950.601562 408.71875 949.949219 C 409.929688 949.300781 410.96875 948.449219 411.828125 947.390625 C 412.699219 946.328125 413.359375 945.121094 413.808594 943.761719 C 414.269531 942.390625 414.488281 941 414.488281 939.570312 C 414.488281 938.101562 414.21875 936.691406 413.679688 935.328125 C 413.140625 933.960938 412.410156 932.761719 411.480469 931.730469 C 410.550781 930.691406 409.46875 929.859375 408.230469 929.230469 C 407 928.601562 405.671875 928.289062 404.25 928.289062 L 388.550781 928.289062 Z M 385.25 971.351562 L 385.25 925.308594 L 404.378906 925.308594 C 406.320312 925.308594 408.121094 925.71875 409.761719 926.539062 C 411.398438 927.359375 412.820312 928.449219 414.011719 929.808594 C 415.191406 931.179688 416.121094 932.710938 416.789062 934.421875 C 417.460938 936.128906 417.800781 937.839844 417.800781 939.570312 C 417.800781 941.261719 417.539062 942.890625 417.019531 944.46875 C 416.5 946.050781 415.769531 947.460938 414.820312 948.71875 C 413.871094 949.96875 412.71875 951.011719 411.378906 951.828125 C 410.039062 952.648438 408.570312 953.191406 406.96875 953.449219 L 418.449219 971.351562 L 414.621094 971.351562 L 403.46875 953.96875 L 388.550781 953.96875 L 388.550781 971.351562 L 385.25 971.351562 "/>
<path fill-rule="nonzero" fill="rgb(16.690063%, 20.591736%, 33.296204%)" fill-opacity="1" d="M 448.828125 971.671875 C 445.679688 971.671875 442.769531 971.011719 440.109375 969.691406 C 437.449219 968.378906 435.160156 966.621094 433.238281 964.441406 C 431.308594 962.261719 429.808594 959.75 428.730469 956.921875 C 427.648438 954.089844 427.109375 951.179688 427.109375 948.199219 C 427.109375 945.171875 427.648438 942.25 428.730469 939.441406 C 429.808594 936.628906 431.320312 934.160156 433.269531 932.019531 C 435.210938 929.878906 437.519531 928.171875 440.179688 926.890625 C 442.828125 925.621094 445.71875 924.980469 448.828125 924.980469 C 452.679688 924.980469 456.109375 925.910156 459.109375 927.769531 C 462.121094 929.628906 464.53125 932.050781 466.339844 935.03125 L 463.808594 937.171875 C 463.078125 935.960938 462.191406 934.800781 461.148438 933.671875 C 460.121094 932.550781 458.960938 931.578125 457.679688 930.75 C 456.410156 929.929688 455.011719 929.269531 453.5 928.78125 C 451.988281 928.28125 450.371094 928.03125 448.640625 928.03125 C 445.910156 928.03125 443.429688 928.609375 441.179688 929.78125 C 438.929688 930.949219 437.019531 932.488281 435.441406 934.421875 C 433.859375 936.339844 432.640625 938.519531 431.78125 940.96875 C 430.910156 943.410156 430.480469 945.910156 430.480469 948.460938 C 430.480469 951.011719 430.921875 953.488281 431.808594 955.910156 C 432.699219 958.339844 433.941406 960.488281 435.539062 962.371094 C 437.140625 964.25 439.050781 965.761719 441.28125 966.910156 C 443.5 968.050781 445.980469 968.621094 448.699219 968.621094 C 451.078125 968.621094 453.289062 968.171875 455.320312 967.261719 C 457.351562 966.351562 459.140625 965.128906 460.699219 963.601562 C 462.261719 962.058594 463.519531 960.308594 464.488281 958.351562 C 465.46875 956.378906 466.121094 954.339844 466.46875 952.21875 L 452.078125 952.21875 L 452.078125 949.238281 L 470.039062 949.238281 C 470.039062 949.410156 470.03125 949.738281 470 950.238281 C 469.980469 950.738281 469.96875 951.109375 469.96875 951.371094 C 469.671875 954.058594 468.929688 956.621094 467.769531 959.058594 C 466.601562 961.5 465.101562 963.660156 463.261719 965.539062 C 461.421875 967.421875 459.269531 968.921875 456.808594 970.019531 C 454.339844 971.121094 451.691406 971.671875 448.828125 971.671875 "/>
<path fill-rule="nonzero" fill="rgb(16.690063%, 20.591736%, 33.296204%)" fill-opacity="1" d="M 508.320312 953.449219 L 498.261719 929.328125 L 488.019531 953.449219 Z M 496.839844 925.308594 L 499.691406 925.308594 L 519.140625 971.351562 L 515.640625 971.351562 L 509.21875 956.171875 L 487.238281 956.171875 L 480.820312 971.351562 L 477.25 971.351562 L 496.839844 925.308594 "/>
<path fill-rule="nonzero" fill="rgb(16.690063%, 20.591736%, 33.296204%)" fill-opacity="1" d="M 532.558594 931.53125 L 532.558594 971.351562 L 529.25 971.351562 L 529.25 925.308594 L 531.78125 925.308594 L 564.070312 965.828125 L 564.070312 925.308594 L 567.378906 925.308594 L 567.378906 971.351562 L 564.328125 971.351562 L 532.558594 931.53125 "/>
<path fill-rule="nonzero" fill="rgb(16.690063%, 20.591736%, 33.296204%)" fill-opacity="1" d="M 581.820312 971.351562 L 585.121094 971.351562 L 585.121094 925.308594 L 581.820312 925.308594 Z M 581.820312 971.351562 "/>
<path fill-rule="nonzero" fill="rgb(16.690063%, 20.591736%, 33.296204%)" fill-opacity="1" d="M 596.671875 968.621094 L 629.421875 928.289062 L 597.128906 928.289062 L 597.128906 925.308594 L 633.308594 925.308594 L 633.308594 928.03125 L 600.820312 968.359375 L 633.179688 968.359375 L 633.179688 971.351562 L 596.671875 971.351562 L 596.671875 968.621094 "/>
<path fill-rule="nonzero" fill="rgb(16.690063%, 20.591736%, 33.296204%)" fill-opacity="1" d="M 671.589844 953.449219 L 661.539062 929.328125 L 651.289062 953.449219 Z M 660.109375 925.308594 L 662.960938 925.308594 L 682.421875 971.351562 L 678.921875 971.351562 L 672.5 956.171875 L 650.511719 956.171875 L 644.089844 971.351562 L 640.53125 971.351562 L 660.109375 925.308594 "/>
<path fill-rule="nonzero" fill="rgb(16.690063%, 20.591736%, 33.296204%)" fill-opacity="1" d="M 726.660156 928.289062 L 709.800781 928.289062 L 709.800781 971.351562 L 706.5 971.351562 L 706.5 928.289062 L 689.628906 928.289062 L 689.628906 925.308594 L 726.660156 925.308594 L 726.660156 928.289062 "/>
<path fill-rule="nonzero" fill="rgb(16.690063%, 20.591736%, 33.296204%)" fill-opacity="1" d="M 736.769531 971.351562 L 740.070312 971.351562 L 740.070312 925.308594 L 736.769531 925.308594 Z M 736.769531 971.351562 "/>
<path fill-rule="nonzero" fill="rgb(16.690063%, 20.591736%, 33.296204%)" fill-opacity="1" d="M 754.929688 948.328125 C 754.929688 950.960938 755.371094 953.5 756.261719 955.949219 C 757.140625 958.390625 758.398438 960.550781 760.019531 962.429688 C 761.640625 964.308594 763.578125 965.808594 765.820312 966.941406 C 768.070312 968.058594 770.539062 968.621094 773.21875 968.621094 C 775.980469 968.621094 778.480469 968.039062 780.710938 966.871094 C 782.929688 965.710938 784.828125 964.160156 786.410156 962.238281 C 787.988281 960.308594 789.210938 958.140625 790.078125 955.71875 C 790.941406 953.300781 791.371094 950.828125 791.371094 948.328125 C 791.371094 945.691406 790.921875 943.148438 790.011719 940.710938 C 789.101562 938.269531 787.839844 936.101562 786.21875 934.21875 C 784.601562 932.339844 782.679688 930.839844 780.480469 929.71875 C 778.269531 928.589844 775.851562 928.03125 773.21875 928.03125 C 770.449219 928.03125 767.941406 928.609375 765.691406 929.78125 C 763.449219 930.949219 761.519531 932.488281 759.921875 934.421875 C 758.320312 936.339844 757.089844 938.511719 756.230469 940.929688 C 755.359375 943.359375 754.929688 945.820312 754.929688 948.328125 Z M 773.148438 971.671875 C 769.949219 971.671875 767.03125 971 764.398438 969.660156 C 761.761719 968.320312 759.488281 966.570312 757.589844 964.410156 C 755.691406 962.25 754.21875 959.761719 753.179688 956.949219 C 752.140625 954.140625 751.621094 951.269531 751.621094 948.328125 C 751.621094 945.261719 752.171875 942.320312 753.28125 939.511719 C 754.378906 936.699219 755.890625 934.210938 757.820312 932.050781 C 759.738281 929.890625 762.019531 928.171875 764.660156 926.890625 C 767.289062 925.621094 770.148438 924.980469 773.21875 924.980469 C 776.421875 924.980469 779.339844 925.660156 782 927.019531 C 784.660156 928.390625 786.929688 930.171875 788.808594 932.371094 C 790.691406 934.578125 792.148438 937.078125 793.191406 939.859375 C 794.230469 942.648438 794.738281 945.46875 794.738281 948.328125 C 794.738281 951.441406 794.191406 954.398438 793.089844 957.210938 C 791.988281 960.019531 790.480469 962.488281 788.550781 964.640625 C 786.628906 966.78125 784.351562 968.480469 781.710938 969.761719 C 779.070312 971.03125 776.21875 971.671875 773.148438 971.671875 "/>
<path fill-rule="nonzero" fill="rgb(16.690063%, 20.591736%, 33.296204%)" fill-opacity="1" d="M 809.601562 931.53125 L 809.601562 971.351562 L 806.289062 971.351562 L 806.289062 925.308594 L 808.820312 925.308594 L 841.121094 965.828125 L 841.121094 925.308594 L 844.421875 925.308594 L 844.421875 971.351562 L 841.378906 971.351562 L 809.601562 931.53125 "/>
<path fill-rule="nonzero" fill="rgb(16.690063%, 20.591736%, 33.296204%)" fill-opacity="1" d="M 885.589844 953.449219 L 875.539062 929.328125 L 865.289062 953.449219 Z M 874.109375 925.308594 L 876.960938 925.308594 L 896.421875 971.351562 L 892.921875 971.351562 L 886.5 956.171875 L 864.511719 956.171875 L 858.089844 971.351562 L 854.53125 971.351562 L 874.109375 925.308594 "/>
<path fill-rule="nonzero" fill="rgb(16.690063%, 20.591736%, 33.296204%)" fill-opacity="1" d="M 906.519531 971.351562 L 906.519531 925.308594 L 909.828125 925.308594 L 909.828125 968.359375 L 937.320312 968.359375 L 937.320312 971.351562 L 906.519531 971.351562 "/>
<path fill-rule="nonzero" fill="rgb(16.690063%, 20.591736%, 33.296204%)" fill-opacity="1" d="M 1011.699219 953.449219 L 1001.640625 929.328125 L 991.398438 953.449219 Z M 1000.21875 925.308594 L 1003.070312 925.308594 L 1022.519531 971.351562 L 1019.019531 971.351562 L 1012.601562 956.171875 L 990.621094 956.171875 L 984.199219 971.351562 L 980.628906 971.351562 L 1000.21875 925.308594 "/>
<path fill-rule="nonzero" fill="rgb(16.690063%, 20.591736%, 33.296204%)" fill-opacity="1" d="M 1051.460938 971.671875 C 1048.308594 971.671875 1045.398438 971.011719 1042.738281 969.691406 C 1040.078125 968.378906 1037.789062 966.621094 1035.871094 964.441406 C 1033.949219 962.261719 1032.441406 959.75 1031.359375 956.921875 C 1030.28125 954.089844 1029.738281 951.179688 1029.738281 948.199219 C 1029.738281 945.171875 1030.28125 942.25 1031.359375 939.441406 C 1032.441406 936.628906 1033.960938 934.160156 1035.898438 932.019531 C 1037.851562 929.878906 1040.148438 928.171875 1042.808594 926.890625 C 1045.46875 925.621094 1048.351562 924.980469 1051.460938 924.980469 C 1055.308594 924.980469 1058.738281 925.910156 1061.738281 927.769531 C 1064.75 929.628906 1067.160156 932.050781 1068.96875 935.03125 L 1066.449219 937.171875 C 1065.710938 935.960938 1064.820312 934.800781 1063.789062 933.671875 C 1062.75 932.550781 1061.589844 931.578125 1060.320312 930.75 C 1059.039062 929.929688 1057.648438 929.269531 1056.128906 928.78125 C 1054.621094 928.28125 1053 928.03125 1051.269531 928.03125 C 1048.550781 928.03125 1046.058594 928.609375 1043.808594 929.78125 C 1041.570312 930.949219 1039.648438 932.488281 1038.070312 934.421875 C 1036.5 936.339844 1035.269531 938.519531 1034.410156 940.96875 C 1033.550781 943.410156 1033.109375 945.910156 1033.109375 948.460938 C 1033.109375 951.011719 1033.558594 953.488281 1034.441406 955.910156 C 1035.328125 958.339844 1036.570312 960.488281 1038.171875 962.371094 C 1039.769531 964.25 1041.679688 965.761719 1043.910156 966.910156 C 1046.140625 968.050781 1048.609375 968.621094 1051.339844 968.621094 C 1053.710938 968.621094 1055.921875 968.171875 1057.949219 967.261719 C 1059.980469 966.351562 1061.78125 965.128906 1063.328125 963.601562 C 1064.890625 962.058594 1066.148438 960.308594 1067.128906 958.351562 C 1068.101562 956.378906 1068.761719 954.339844 1069.101562 952.21875 L 1054.710938 952.21875 L 1054.710938 949.238281 L 1072.671875 949.238281 C 1072.671875 949.410156 1072.660156 949.738281 1072.640625 950.238281 C 1072.609375 950.738281 1072.601562 951.109375 1072.601562 951.371094 C 1072.300781 954.058594 1071.570312 956.621094 1070.398438 959.058594 C 1069.230469 961.5 1067.730469 963.660156 1065.890625 965.539062 C 1064.058594 967.421875 1061.910156 968.921875 1059.441406 970.019531 C 1056.980469 971.121094 1054.320312 971.671875 1051.460938 971.671875 "/>
<path fill-rule="nonzero" fill="rgb(16.690063%, 20.591736%, 33.296204%)" fill-opacity="1" d="M 1082.78125 971.351562 L 1086.078125 971.351562 L 1086.078125 925.308594 L 1082.78125 925.308594 Z M 1082.78125 971.351562 "/>
<path fill-rule="nonzero" fill="rgb(16.690063%, 20.591736%, 33.296204%)" fill-opacity="1" d="M 1100.519531 971.351562 L 1100.519531 925.308594 L 1103.820312 925.308594 L 1103.820312 968.359375 L 1131.320312 968.359375 L 1131.320312 971.351562 L 1100.519531 971.351562 "/>
<path fill-rule="nonzero" fill="rgb(16.690063%, 20.591736%, 33.296204%)" fill-opacity="1" d="M 1141.421875 971.351562 L 1144.730469 971.351562 L 1144.730469 925.308594 L 1141.421875 925.308594 Z M 1141.421875 971.351562 "/>
<path fill-rule="nonzero" fill="rgb(16.690063%, 20.591736%, 33.296204%)" fill-opacity="1" d="M 1191.859375 928.289062 L 1175 928.289062 L 1175 971.351562 L 1171.699219 971.351562 L 1171.699219 928.289062 L 1154.839844 928.289062 L 1154.839844 925.308594 L 1191.859375 925.308594 L 1191.859375 928.289062 "/>
<path fill-rule="nonzero" fill="rgb(16.690063%, 20.591736%, 33.296204%)" fill-opacity="1" d="M 1202.710938 925.308594 L 1218.789062 950.789062 L 1234.941406 925.308594 L 1238.640625 925.308594 L 1220.480469 953.96875 L 1220.480469 971.351562 L 1217.171875 971.351562 L 1217.171875 953.839844 L 1199.078125 925.308594 L 1202.710938 925.308594 "/>
<path fill-rule="nonzero" fill="rgb(16.690063%, 20.591736%, 33.296204%)" fill-opacity="1" d="M 333.078125 789.859375 C 333.078125 780.738281 334.679688 771.640625 337.890625 762.578125 C 341.101562 753.519531 345.769531 745.429688 351.910156 738.289062 C 358.039062 731.160156 365.601562 725.339844 374.589844 720.851562 C 383.578125 716.359375 393.78125 714.109375 405.191406 714.109375 C 418.738281 714.109375 430.300781 717.179688 439.859375 723.308594 C 449.410156 729.449219 456.550781 737.441406 461.261719 747.28125 L 449.269531 754.558594 C 446.851562 749.558594 443.921875 745.351562 440.5 741.929688 C 437.078125 738.511719 433.359375 735.71875 429.371094 733.578125 C 425.378906 731.441406 421.238281 729.910156 416.960938 728.980469 C 412.679688 728.058594 408.46875 727.589844 404.328125 727.589844 C 395.199219 727.589844 387.140625 729.449219 380.148438 733.160156 C 373.160156 736.871094 367.28125 741.71875 362.5 747.710938 C 357.71875 753.699219 354.121094 760.441406 351.691406 767.929688 C 349.269531 775.421875 348.050781 783.019531 348.050781 790.71875 C 348.050781 799.140625 349.519531 807.199219 352.441406 814.898438 C 355.359375 822.601562 359.359375 829.421875 364.421875 835.339844 C 369.488281 841.261719 375.480469 845.96875 382.398438 849.460938 C 389.320312 852.960938 396.851562 854.699219 404.980469 854.699219 C 409.261719 854.699219 413.640625 854.171875 418.140625 853.101562 C 422.628906 852.03125 426.980469 850.320312 431.191406 847.960938 C 435.398438 845.609375 439.289062 842.691406 442.851562 839.191406 C 446.421875 835.699219 449.410156 831.449219 451.839844 826.460938 L 464.25 832.878906 C 461.828125 838.578125 458.398438 843.609375 453.980469 847.960938 C 449.558594 852.320312 444.640625 855.988281 439.21875 858.980469 C 433.789062 861.980469 428.050781 864.261719 421.988281 865.828125 C 415.921875 867.398438 409.96875 868.191406 404.121094 868.191406 C 393.710938 868.191406 384.148438 865.898438 375.449219 861.339844 C 366.738281 856.769531 359.25 850.820312 352.980469 843.46875 C 346.699219 836.121094 341.808594 827.78125 338.320312 818.429688 C 334.820312 809.089844 333.078125 799.570312 333.078125 789.859375 "/>
<path fill-rule="nonzero" fill="rgb(16.690063%, 20.591736%, 33.296204%)" fill-opacity="1" d="M 516.109375 866.898438 L 530.871094 866.898438 L 530.871094 715.179688 L 516.109375 715.179688 Z M 516.109375 866.898438 "/>
<path fill-rule="nonzero" fill="rgb(16.690063%, 20.591736%, 33.296204%)" fill-opacity="1" d="M 582.730469 789.859375 C 582.730469 780.738281 584.328125 771.640625 587.539062 762.578125 C 590.75 753.519531 595.421875 745.429688 601.558594 738.289062 C 607.691406 731.160156 615.261719 725.339844 624.238281 720.851562 C 633.230469 716.359375 643.429688 714.109375 654.839844 714.109375 C 668.398438 714.109375 679.949219 717.179688 689.511719 723.308594 C 699.070312 729.449219 706.199219 737.441406 710.910156 747.28125 L 698.929688 754.558594 C 696.5 749.558594 693.578125 745.351562 690.148438 741.929688 C 686.730469 738.511719 683.019531 735.71875 679.03125 733.578125 C 675.03125 731.441406 670.890625 729.910156 666.609375 728.980469 C 662.328125 728.058594 658.121094 727.589844 653.988281 727.589844 C 644.859375 727.589844 636.789062 729.449219 629.808594 733.160156 C 622.820312 736.871094 616.929688 741.71875 612.148438 747.710938 C 607.371094 753.699219 603.769531 760.441406 601.351562 767.929688 C 598.921875 775.421875 597.710938 783.019531 597.710938 790.71875 C 597.710938 799.140625 599.171875 807.199219 602.101562 814.898438 C 605.019531 822.601562 609.011719 829.421875 614.078125 835.339844 C 619.140625 841.261719 625.128906 845.96875 632.050781 849.460938 C 638.96875 852.960938 646.5 854.699219 654.628906 854.699219 C 658.910156 854.699219 663.300781 854.171875 667.789062 853.101562 C 672.28125 852.03125 676.628906 850.320312 680.839844 847.960938 C 685.050781 845.609375 688.941406 842.691406 692.511719 839.191406 C 696.070312 835.699219 699.070312 831.449219 701.488281 826.460938 L 713.910156 832.878906 C 711.480469 838.578125 708.050781 843.609375 703.628906 847.960938 C 699.210938 852.320312 694.289062 855.988281 688.871094 858.980469 C 683.449219 861.980469 677.699219 864.261719 671.640625 865.828125 C 665.578125 867.398438 659.621094 868.191406 653.769531 868.191406 C 643.359375 868.191406 633.800781 865.898438 625.101562 861.339844 C 616.398438 856.769531 608.910156 850.820312 602.628906 843.46875 C 596.351562 836.121094 591.460938 827.78125 587.96875 818.429688 C 584.46875 809.089844 582.730469 799.570312 582.730469 789.859375 "/>
<path fill-rule="nonzero" fill="rgb(16.690063%, 20.591736%, 33.296204%)" fill-opacity="1" d="M 887.761719 866.878906 L 871.71875 866.878906 L 848.140625 807.628906 L 818.238281 732.511719 L 788.089844 807.628906 L 764.308594 866.878906 L 748.480469 866.878906 L 818.128906 700.359375 L 887.761719 866.878906 "/>
<path fill-rule="nonzero" fill="rgb(16.690063%, 20.591736%, 33.296204%)" fill-opacity="1" d="M 1048.75 790.71875 C 1048.75 781.589844 1047.46875 773.210938 1044.898438 765.578125 C 1042.328125 757.949219 1038.578125 751.351562 1033.660156 745.78125 C 1028.738281 740.21875 1022.710938 735.910156 1015.578125 732.839844 C 1008.449219 729.769531 1000.238281 728.230469 990.96875 728.230469 L 954.378906 728.230469 L 954.378906 853.628906 L 990.96875 853.628906 C 1000.390625 853.628906 1008.699219 852.03125 1015.898438 848.820312 C 1023.101562 845.609375 1029.128906 841.191406 1033.980469 835.550781 C 1038.828125 829.921875 1042.511719 823.28125 1045.011719 815.648438 C 1047.5 808.019531 1048.75 799.710938 1048.75 790.71875 Z M 939.609375 866.898438 L 939.609375 714.96875 L 990.96875 714.96875 C 1003.101562 714.96875 1013.730469 716.96875 1022.859375 720.960938 C 1031.988281 724.949219 1039.578125 730.371094 1045.648438 737.21875 C 1051.710938 744.070312 1056.238281 752.089844 1059.238281 761.300781 C 1062.230469 770.5 1063.730469 780.308594 1063.730469 790.71875 C 1063.730469 802.28125 1062.019531 812.730469 1058.589844 822.070312 C 1055.171875 831.421875 1050.320312 839.398438 1044.039062 846.039062 C 1037.761719 852.671875 1030.128906 857.808594 1021.148438 861.441406 C 1012.160156 865.078125 1002.101562 866.898438 990.96875 866.898438 L 939.609375 866.898438 "/>
<path fill-rule="nonzero" fill="rgb(16.690063%, 20.591736%, 33.296204%)" fill-opacity="1" d="M 1237.578125 866.878906 L 1221.539062 866.878906 L 1197.96875 807.628906 L 1168.058594 732.511719 L 1137.921875 807.628906 L 1114.128906 866.878906 L 1098.300781 866.878906 L 1167.960938 700.359375 L 1237.578125 866.878906 "/>
</svg>
